<svg width="262" height="260" viewBox="0 0 262 260" fill="none" xmlns="http://www.w3.org/2000/svg">
<path fill-rule="evenodd" clip-rule="evenodd" d="M38.1289 96.2353C38.1289 87.7626 44.8266 80.8936 53.0886 80.8936H125.075C133.337 80.8936 140.035 87.7626 140.035 96.2353V227.603C140.035 236.076 133.337 242.944 125.075 242.944H53.0886C44.8266 242.944 38.1289 236.076 38.1289 227.603V96.2353ZM53.0886 82.3547C45.6134 82.3547 39.5536 88.5691 39.5536 96.2353V227.603C39.5536 235.268 45.6134 241.483 53.0886 241.483H125.075C132.551 241.483 138.61 235.268 138.61 227.603V96.2353C138.61 88.5691 132.551 82.3547 125.075 82.3547H53.0886Z" fill="#F1F1F1"/>
<path fill-rule="evenodd" clip-rule="evenodd" d="M171.648 97.0156C173.615 97.0156 175.21 98.6509 175.21 100.669V234.548C175.21 236.565 173.615 238.201 171.648 238.201H90.0345C88.0674 238.201 86.4727 236.565 86.4727 234.548V163.705L98.603 167.333C99.1872 167.508 99.8175 167.419 100.334 167.087L108.389 161.925C109.291 161.346 110.47 161.537 111.156 162.371L119.271 172.254C119.928 173.054 121.044 173.266 121.937 172.762L135.212 165.26C135.931 164.855 136.812 164.907 137.48 165.393L145.488 171.22C146.113 171.676 146.93 171.752 147.627 171.42L164.244 163.486C164.968 163.141 165.819 163.238 166.451 163.738L175.21 170.667V100.669C175.21 98.6509 173.615 97.0156 171.648 97.0156H90.0343C89.9873 97.0156 89.9405 97.0166 89.8938 97.0184C89.9405 97.0166 89.9874 97.0156 90.0345 97.0156H171.648Z" fill="#53B3CC"/>
<path d="M104.086 38.8027H113.873V45.494H104.086V38.8027Z" fill="#E5E5E5"/>
<path d="M60.3711 0.662109H117.137V42.1478H60.3711V0.662109Z" fill="#FAC22F"/>
<path d="M21.875 78.8394C21.875 70.77 28.2538 64.2285 36.1224 64.2285H108.109C115.978 64.2285 122.356 70.77 122.356 78.8394V210.207C122.356 218.276 115.978 224.819 108.109 224.819H36.1224C28.2538 224.819 21.875 218.276 21.875 210.207V78.8394Z" fill="#F1F1F1"/>
<path fill-rule="evenodd" clip-rule="evenodd" d="M21.1641 78.8404C21.1641 70.3676 27.8618 63.499 36.1238 63.499H108.11C116.373 63.499 123.07 70.3676 123.07 78.8404V210.208C123.07 218.681 116.373 225.549 108.11 225.549H36.1238C27.8618 225.549 21.1641 218.681 21.1641 210.208V78.8404ZM36.1238 64.96C28.6486 64.96 22.5887 71.1745 22.5887 78.8404V210.208C22.5887 217.874 28.6486 224.089 36.1238 224.089H108.11C115.586 224.089 121.645 217.874 121.645 210.208V78.8404C121.645 71.1745 115.586 64.96 108.11 64.96H36.1238Z" fill="#3E3D3D"/>
<path fill-rule="evenodd" clip-rule="evenodd" d="M27.0938 67.5352C29.5514 65.4687 32.695 64.2285 36.1211 64.2285H108.108C111.534 64.2285 114.678 65.4689 117.136 67.5355V221.511C114.678 223.578 111.534 224.819 108.108 224.819H36.1211C32.695 224.819 29.5514 223.578 27.0938 221.512V67.5352Z" fill="white"/>
<path opacity="0.5" d="M34.9258 96.653C34.9258 94.6353 36.5205 93 38.4876 93H105.747C107.713 93 109.308 94.6353 109.308 96.653V140.87C109.308 142.887 107.713 144.522 105.747 144.522H38.4876C36.5205 144.522 34.9258 142.887 34.9258 140.87V96.653Z" fill="#F1F1F1"/>
<path d="M34.926 157.905H53.8478V169.95H34.926V157.905ZM61.6773 157.905H80.5991V169.95H61.6773V157.905ZM88.4291 157.905H109.308V169.95H88.4291V157.905ZM34.9258 177.31H53.8476V189.354H34.9258V177.31ZM61.6771 177.31H80.599V189.354H61.6771V177.31ZM88.4289 177.31H109.308V189.354H88.4289V177.31Z" fill="#53B3CC"/>
<path d="M34.9258 197.385H53.8476V209.429H34.9258V197.385Z" fill="#F15846"/>
<path d="M61.6758 197.385H80.5976V209.429H61.6758V197.385Z" fill="#53B3CC"/>
<path d="M88.4297 197.385H109.309V209.429H88.4297V197.385Z" fill="#F15846"/>
<path fill-rule="evenodd" clip-rule="evenodd" d="M21.1641 78.8404C21.1641 70.3676 27.8618 63.499 36.1238 63.499H108.11C116.373 63.499 123.07 70.3676 123.07 78.8404V210.208C123.07 218.681 116.373 225.549 108.11 225.549H36.1238C27.8618 225.549 21.1641 218.681 21.1641 210.208V78.8404ZM36.1238 64.96C28.6486 64.96 22.5887 71.1745 22.5887 78.8404V210.208C22.5887 217.874 28.6486 224.089 36.1238 224.089H108.11C115.586 224.089 121.645 217.874 121.645 210.208V78.8404C121.645 71.1745 115.586 64.96 108.11 64.96H36.1238Z" fill="#3E3D3D"/>
<path d="M40.1406 34.7881H104.083V80.9576H40.1406V34.7881Z" fill="#F1F1F1"/>
<path fill-rule="evenodd" clip-rule="evenodd" d="M104.083 34.7881H40.1406V31.1079L40.1553 31.0912C40.1458 30.9866 40.1408 30.8805 40.1408 30.7733C40.1408 28.9257 41.6013 27.4278 43.403 27.4277H107.346L104.083 31.1079V34.7881Z" fill="#F1F1F1"/>
<path d="M117.134 42.1485C117.134 43.9962 115.674 45.4941 113.872 45.4941C112.07 45.4941 110.609 43.9962 110.609 42.1485C110.609 40.3007 112.07 38.8028 113.872 38.8028C115.674 38.8028 117.134 40.3007 117.134 42.1485Z" fill="#FAC22F"/>
<path d="M110.611 30.7733C110.611 32.621 109.151 34.119 107.348 34.119C105.547 34.119 104.086 32.621 104.086 30.7733C104.086 28.9256 105.547 27.4277 107.348 27.4277C109.151 27.4277 110.611 28.9256 110.611 30.7733Z" fill="#E5E5E5"/>
<path d="M104.086 30.7725H110.611V45.4931H104.086V30.7725Z" fill="#E5E5E5"/>
<path d="M94.626 118.763C94.626 131.328 84.6941 141.514 72.442 141.514C60.19 141.514 50.2578 131.328 50.2578 118.763C50.2578 106.198 60.19 96.0127 72.442 96.0127C84.6941 96.0127 94.626 106.198 94.626 118.763Z" fill="#F15846"/>
<path d="M40.1406 76.2734H104.083V80.9572H40.1406V76.2734Z" fill="#E5E5E5"/>
<path fill-rule="evenodd" clip-rule="evenodd" d="M58.4102 129.019L82.442 104.374L86.4717 108.507L62.4399 133.152L58.4102 129.019Z" fill="white"/>
<path fill-rule="evenodd" clip-rule="evenodd" d="M62.4399 104.374L86.4717 129.019L82.442 133.152L58.4102 108.507L62.4399 104.374Z" fill="white"/>
<path fill-rule="evenodd" clip-rule="evenodd" d="M136.711 165.041V238.2H156.938V166.973L147.624 171.419C146.928 171.752 146.112 171.675 145.486 171.219L137.478 165.392C137.244 165.221 136.983 165.104 136.711 165.041Z" fill="#46A4BC"/>
<path fill-rule="evenodd" clip-rule="evenodd" d="M242.563 134.418C243.271 136.299 242.356 138.414 240.522 139.14L176.836 164.329L179.988 153.455C180.216 152.671 179.997 151.821 179.423 151.253L166.225 138.208C165.673 137.66 165.448 136.852 165.638 136.089L168.057 126.331C168.26 125.516 167.99 124.654 167.362 124.113L155.76 114.111C154.98 113.438 154.772 112.293 155.263 111.377L161.334 100.056C161.847 99.0998 161.595 97.9026 160.744 97.2479L153.149 91.3985C152.662 91.0234 152.354 90.453 152.303 89.8299L151.238 76.9183L208.59 54.2349C210.425 53.509 212.487 54.4464 213.195 56.3285L242.563 134.418Z" fill="#53B3CC"/>
<path fill-rule="evenodd" clip-rule="evenodd" d="M83.4699 181.176L76.1914 161.822L83.47 181.176H83.4699ZM173.619 145.52L166.223 138.208C165.67 137.662 165.446 136.853 165.635 136.09L168.056 126.332C168.126 126.046 168.14 125.753 168.098 125.471L229.99 100.992L237.268 120.346L173.619 145.52Z" fill="#46A4BC"/>
<path d="M171.293 39.4707C171.293 50.742 162.384 59.879 151.392 59.879C140.402 59.879 131.492 50.742 131.492 39.4707C131.492 28.1996 140.402 19.0625 151.392 19.0625C162.384 19.0625 171.293 28.1996 171.293 39.4707Z" fill="#F15846"/>
<path d="M193.48 39.4721C193.48 35.5918 190.412 32.4463 186.628 32.4463C182.845 32.4463 179.777 35.5918 179.777 39.4721C179.777 43.3523 182.845 46.4979 186.628 46.4979C190.412 46.4979 193.48 43.3523 193.48 39.4721Z" fill="#FAC22F"/>
<path fill-rule="evenodd" clip-rule="evenodd" d="M140.168 47.3667L159.091 27.9609L162.617 31.577L143.694 50.9827L140.168 47.3667Z" fill="white"/>
<path fill-rule="evenodd" clip-rule="evenodd" d="M143.694 27.9629L162.617 47.3687L159.091 50.9846L140.168 31.5788L143.694 27.9629Z" fill="white"/>
<path d="M246.324 249.242H186.949V258.609H246.324V249.242Z" fill="#F15846"/>
<path d="M253.504 240.543H194.129V249.242H253.504V240.543Z" fill="#53B3CC"/>
<path d="M249.59 231.174H190.215V240.542H249.59V231.174Z" fill="#FAC22F"/>
<path fill-rule="evenodd" clip-rule="evenodd" d="M0.609375 258.608C0.609375 258.205 0.928314 257.877 1.32175 257.877H260.682C261.075 257.877 261.395 258.205 261.395 258.608C261.395 259.011 261.075 259.338 260.682 259.338H1.32175C0.928314 259.338 0.609375 259.011 0.609375 258.608Z" fill="#3E3D3D"/>
<path fill-rule="evenodd" clip-rule="evenodd" d="M242.413 183.394H193.477V181.933H242.413V183.394ZM242.413 196.442H193.477V194.981H242.413V196.442ZM218.923 210.494H193.477V209.032H218.923V210.494Z" fill="#F1F1F1"/>
<path fill-rule="evenodd" clip-rule="evenodd" d="M94.626 42.5431H50.2578V41.082H94.626V42.5431ZM94.626 54.2528H50.2578V52.7917H94.626V54.2528ZM94.626 64.9588H50.2578V63.4977H94.626V64.9588Z" fill="#3E3D3D"/>
</svg>
