<svg width="348" height="309" viewBox="0 0 348 309" fill="none" xmlns="http://www.w3.org/2000/svg">
<g clip-path="url(#clip0_2992_8878)">
<path d="M174.5 284C249.887 284 311 222.887 311 147.5C311 72.1131 249.887 11 174.5 11C99.1131 11 38 72.1131 38 147.5C38 222.887 99.1131 284 174.5 284Z" fill="#324A5E"/>
<path d="M271.02 244.019C290.867 224.173 303.318 199.733 308.387 174.123L270.826 136.562C270.826 136.836 220.929 136.834 189.463 136.807L154.898 102.243C154.808 102.333 153.859 102.678 152.506 103.14L146.772 97.4043C146.772 97.4043 89.8799 167.264 90.315 166.828L204.224 280.736C228.703 275.3 251.976 263.064 271.02 244.019Z" fill="#2B3B4E"/>
<path d="M206.242 81.9141L114.333 173.823C110.217 177.938 110.217 184.611 114.333 188.726C118.449 192.843 125.121 192.842 129.236 188.726C125.121 192.842 125.121 199.515 129.236 203.631C133.351 207.746 140.024 207.746 144.14 203.631C140.024 207.746 140.024 214.419 144.14 218.535C148.255 222.65 154.928 222.65 159.043 218.535C154.928 222.65 154.928 229.323 159.043 233.438C163.158 237.553 169.832 237.553 173.947 233.438L229.624 177.761C235.915 171.469 235.915 161.269 229.624 154.978L254.464 130.137L206.242 81.9141Z" fill="#DCAD81"/>
<path d="M254.469 130.14L233.43 109.101L135.852 206.678C138.822 206.915 141.871 205.904 144.143 203.632C140.028 207.748 140.028 214.42 144.143 218.536C148.258 222.652 154.931 222.652 159.046 218.536C154.931 222.652 154.931 229.324 159.046 233.439C163.162 237.556 169.835 237.556 173.95 233.439L229.627 177.762C235.918 171.47 235.918 161.27 229.627 154.979L254.469 130.14Z" fill="#D9A275"/>
<path d="M135.025 92.3076L226.935 184.217C231.05 188.332 231.05 195.005 226.935 199.12C222.818 203.237 216.146 203.236 212.031 199.12C216.146 203.236 216.146 209.909 212.031 214.025C207.916 218.14 201.243 218.14 197.127 214.025C201.243 218.14 201.243 224.813 197.127 228.929C193.012 233.044 186.339 233.044 182.224 228.929C186.339 233.044 186.339 239.717 182.224 243.832C178.109 247.947 171.436 247.947 167.32 243.832L111.641 188.155C105.35 181.864 105.35 171.663 111.641 165.372L86.8008 140.532L135.025 92.3076Z" fill="#F4E3C3"/>
<path d="M86.8008 140.533L111.641 165.374C105.349 171.666 105.349 181.865 111.641 188.157L167.318 243.834C171.433 247.95 178.106 247.95 182.222 243.834C186.337 239.718 186.337 233.046 182.222 228.93C186.337 233.047 193.01 233.046 197.125 228.93C200.817 225.239 201.186 219.496 198.256 215.381L105.106 122.229L86.8008 140.533Z" fill="#FED8B2"/>
<path d="M70.4409 146.958L90.3125 166.83L154.899 102.244L135.027 82.3724L70.4409 146.958Z" fill="#84DBFF"/>
<path d="M90.3198 166.834L120.016 137.138L100.144 117.266L70.4481 146.962L90.3198 166.834Z" fill="#31BAFD"/>
<path d="M199.687 126.971L183.991 142.667C179.657 147.001 172.63 147.001 168.295 142.667L144.751 166.212C140.417 170.545 133.39 170.545 129.055 166.212C124.721 161.878 124.721 154.851 129.055 150.516L199.687 79.8838V126.971Z" fill="#DCAD81"/>
<path d="M206.235 71.9742L186.363 91.8459L250.949 156.432L270.821 136.56L206.235 71.9742Z" fill="#B5F1F4"/>
<path d="M218.531 124.005L250.961 156.435L270.833 136.563L238.403 104.133L218.531 124.005Z" fill="#84DBFF"/>
<path d="M165.94 242.452L173.554 234.837C177.671 230.721 177.67 224.049 173.554 219.934C169.438 215.817 162.766 215.817 158.651 219.934C162.766 215.819 162.766 209.145 158.651 205.03C154.535 200.915 147.862 200.914 143.747 205.03C147.864 200.914 147.862 194.242 143.747 190.126C139.632 186.009 132.959 186.009 128.844 190.126C132.959 186.009 132.959 179.337 128.844 175.222C124.728 171.106 118.055 171.106 113.94 175.222L107.645 181.518C108.392 183.948 109.723 186.236 111.647 188.159L165.94 242.452Z" fill="#EBB482"/>
<path d="M158.648 219.932C162.764 215.817 162.764 209.144 158.648 205.029C154.533 200.912 147.86 200.912 143.745 205.029C146.244 202.53 147.216 199.09 146.68 195.85L133.008 209.521L165.938 242.452L173.553 234.837C177.668 230.721 177.668 224.049 173.553 219.933C169.437 215.817 162.764 215.817 158.648 219.932Z" fill="#DBAA82"/>
</g>
<g clip-path="url(#clip1_2992_8878)">
<path d="M295.402 309C324.451 309 348 285.443 348 256.384C348 227.325 324.451 203.769 295.402 203.769C266.353 203.769 242.805 227.325 242.805 256.384C242.805 285.443 266.353 309 295.402 309Z" fill="#25AE88"/>
<path d="M322.752 235.338L289.09 273.221L268.051 256.384" stroke="white" stroke-width="9" stroke-miterlimit="10" stroke-linecap="round" stroke-linejoin="round"/>
</g>
<defs>
<clipPath id="clip0_2992_8878">
<rect width="273" height="273" fill="white" transform="translate(38 11)"/>
</clipPath>
<clipPath id="clip1_2992_8878">
<rect width="105.195" height="105.231" fill="white" transform="translate(242.805 203.769)"/>
</clipPath>
</defs>
</svg>
